# xmcd
#
# Track frame offsets:
#  182
#  23555
#  43865
#  48347
#  64810
#  89435
#  104980
#  125397
#  139730
#  163057
#  181620
#  190347
#
# Disc length: 2761 seconds
#
# Revision: 5
# Processed by: cddbd v1.5.1PL2 Copyright (c) Steve Scherf et al.
# Submitted via: Collectorz.com Music Collector 6.9
#
DISCID=a70ac70c
DTITLE=Papa's Culture - Papa's Culture, But...
DYEAR=1993
DGENRE=Hip Hop - Jazz
TTITLE0=Swim
TTITLE1=It's Me
TTITLE2=Time FeKill 1
TTITLE3=Muffin Man
TTITLE4=Toes
TTITLE5=Sometimes
TTITLE6=Top 40
TTITLE7=Put Me Down
TTITLE8=(Who Is) Mack Daddy Love
TTITLE9=Bronze
TTITLE10=Time Fe Kill 3
TTITLE11=Fire
EXTD=
EXTT0=
EXTT1=
EXTT2=
EXTT3=
EXTT4=
EXTT5=
EXTT6=
EXTT7=
EXTT8=
EXTT9=
EXTT10=
EXTT11=
PLAYORDER=
